<mxfile host="app.diagrams.net" modified="2024-04-14T10:25:38.648Z" agent="Mozilla/5.0 (Windows NT 10.0; Win64; x64) AppleWebKit/537.36 (KHTML, like Gecko) Chrome/123.0.0.0 Safari/537.36 Edg/123.0.0.0" version="24.2.5" etag="TNcK4-Ky6XwJrXExkFGA" type="github">
  <diagram name="第 1 页" id="DNwS5_5g2qvvCs7IG5dz">
    <mxGraphModel>
      <root>
        <mxCell id="0" />
        <mxCell id="1" parent="0" />
      </root>
    </mxGraphModel>
  </diagram>
</mxfile>
